<?xml version="1.0" encoding="utf-8"?>
<!-- Generator: Adobe Illustrator 25.4.1, SVG Export Plug-In . SVG Version: 6.00 Build 0)  -->
<svg version="1.1" id="Layer_1" focusable="false" xmlns="http://www.w3.org/2000/svg" xmlns:xlink="http://www.w3.org/1999/xlink"
	 x="0px" y="0px" viewBox="0 0 841.4 512" style="enable-background:new 0 0 841.4 512;" xml:space="preserve">
<path d="M266.1,224L416,277.5V496c0,8.8-7.2,16-16,16h-64c-8.8,0-16-7.2-16-16V384H160v112c0,8.8-7.2,16-16,16H80
	c-8.8,0-16-7.2-16-16V282.1C26.8,268.8,0,233.7,0,192c0-17.7,14.3-32,32-32s32,14.3,32,32c0,17.7,14.3,32,32,32H266.1z M512,112v32
	c0,35.3-28.7,64-64,64h-32v35.6l-128-45.7V48c0-14.2,17.2-21.4,27.3-11.3L342.6,64h53.6c10.9,0,23.8,7.9,28.6,17.7L432,96h64
	C504.8,96,512,103.2,512,112z M400,112c0-8.8-7.2-16-16-16s-16,7.2-16,16s7.2,16,16,16S400,120.8,400,112z"/>
<path d="M543.2,354.5c-8,0-15.6-1.3-23-3.3v148c0,6.3,5.1,11.5,11.5,11.5h23c6.3,0,11.5-5.1,11.5-11.5V395.9l91.9,68.9h-23
	c-12.7,0-23,10.3-23,23v11.5c0,6.3,5.1,11.5,11.5,11.5h126.3c25.3,0,45.9-20.6,45.9-45.9V281c0-12.7,10.3-23,23-23
	c12.7,0,23-10.3,23-23c0-12.7-10.3-23-23-23c-38,0-68.9,30.9-68.9,68.9v61.7c-40-60.3-102.2-61.7-116.7-61.7
	C624.6,322.9,587.5,354.5,543.2,354.5z M474.2,166.2v96.5c0,38.1,30.8,68.9,68.9,68.9c38.1,0,68.9-30.8,68.9-68.9v-96.5l-45.9,45.9
	h-45.9L474.2,166.2z M560.4,258.1c0-6.3,5.1-11.5,11.5-11.5c6.3,0,11.5,5.1,11.5,11.5c0,6.3-5.1,11.5-11.5,11.5
	C565.5,269.6,560.4,264.4,560.4,258.1z M503,258.1c0-6.3,5.1-11.5,11.5-11.5s11.5,5.1,11.5,11.5c0,6.3-5.1,11.5-11.5,11.5
	S503,264.4,503,258.1z"/>
</svg>
